<mxfile host="app.diagrams.net" agent="Mozilla/5.0 (Windows NT 10.0; Win64; x64) AppleWebKit/537.36 (KHTML, like Gecko) Chrome/126.0.0.0 Safari/537.36 OPR/112.0.0.0" version="24.7.12">
  <diagram name="Page-1" id="DBoic3QhhyA_ytf5XPtQ">
    <mxGraphModel dx="3943" dy="1187" grid="1" gridSize="10" guides="1" tooltips="1" connect="1" arrows="1" fold="1" page="1" pageScale="1" pageWidth="1654" pageHeight="1169" math="0" shadow="0">
      <root>
        <mxCell id="0" />
        <mxCell id="1" parent="0" />
        <mxCell id="J6iuozXOtlbJtQhGWxRC-1" value="" style="rounded=0;whiteSpace=wrap;html=1;fillColor=default;strokeColor=none;" vertex="1" parent="1">
          <mxGeometry x="-1567" y="395" width="1480" height="380" as="geometry" />
        </mxCell>
        <mxCell id="J6iuozXOtlbJtQhGWxRC-2" value="&lt;div style=&quot;&quot;&gt;&lt;font color=&quot;#3399ff&quot; style=&quot;font-size: 89px;&quot; data-font-src=&quot;https://fonts.googleapis.com/css?family=Gochi+Hand&quot; face=&quot;Gochi Hand&quot;&gt;gglogo&lt;/font&gt;&lt;/div&gt;" style="text;html=1;align=center;verticalAlign=middle;whiteSpace=wrap;rounded=0;" vertex="1" parent="1">
          <mxGeometry x="-1557" y="406" width="1470" height="124" as="geometry" />
        </mxCell>
        <mxCell id="J6iuozXOtlbJtQhGWxRC-3" value="&lt;div style=&quot;&quot;&gt;&lt;font color=&quot;#3399ff&quot; style=&quot;font-size: 89px;&quot; data-font-src=&quot;https://fonts.googleapis.com/css?family=Gochi+Hand&quot; face=&quot;Gochi Hand&quot;&gt;making it easy to add a logo!&lt;/font&gt;&lt;/div&gt;" style="text;html=1;align=center;verticalAlign=middle;whiteSpace=wrap;rounded=0;" vertex="1" parent="1">
          <mxGeometry x="-1550" y="630" width="1470" height="124" as="geometry" />
        </mxCell>
        <mxCell id="J6iuozXOtlbJtQhGWxRC-4" value="" style="shape=image;verticalLabelPosition=bottom;labelBackgroundColor=default;verticalAlign=top;aspect=fixed;imageAspect=0;image=https://www.resbank.co.za/content/dam/sarb/home/electronic-signature/sarb-logo-gold-01.jpg;" vertex="1" parent="1">
          <mxGeometry x="-910.2" y="506" width="190.41" height="127.81" as="geometry" />
        </mxCell>
        <mxCell id="J6iuozXOtlbJtQhGWxRC-6" value="" style="html=1;verticalLabelPosition=bottom;align=center;labelBackgroundColor=#ffffff;verticalAlign=top;strokeWidth=9;strokeColor=#0080F0;shadow=0;dashed=0;shape=mxgraph.ios7.icons.cup;" vertex="1" parent="1">
          <mxGeometry x="-877" y="530" width="110" height="110" as="geometry" />
        </mxCell>
      </root>
    </mxGraphModel>
  </diagram>
</mxfile>
